<svg width="173" height="167" viewBox="0 0 173 167" fill="none" xmlns="http://www.w3.org/2000/svg">
<path d="M74.2346 167C110.433 167 139.777 165.172 139.777 162.917C139.777 160.662 110.433 158.834 74.2346 158.834C38.0364 158.834 8.69202 160.662 8.69202 162.917C8.69202 165.172 38.0364 167 74.2346 167Z" fill="#FFC100"/>
<path opacity="0.8" d="M74.2346 167C110.433 167 139.777 165.172 139.777 162.917C139.777 160.662 110.433 158.834 74.2346 158.834C38.0364 158.834 8.69202 160.662 8.69202 162.917C8.69202 165.172 38.0364 167 74.2346 167Z" fill="white"/>
<path d="M123.487 7.6507H57.5839C53.034 7.6507 49.3455 11.3392 49.3455 15.8891V155.022C49.3455 159.572 53.034 163.26 57.5839 163.26H123.487C128.037 163.26 131.725 159.572 131.725 155.022V15.8891C131.725 11.3392 128.037 7.6507 123.487 7.6507Z" fill="#263238"/>
<path d="M128.062 24.7381H53.0047V146.173H128.062V24.7381Z" fill="white" stroke="#263238" stroke-width="1.33739" stroke-miterlimit="10"/>
<path d="M102.039 73.9105C108.393 67.5571 108.393 57.2561 102.039 50.9026C95.6859 44.5492 85.3849 44.5492 79.0314 50.9026C72.678 57.2561 72.678 67.5571 79.0314 73.9105C85.3849 80.264 95.6859 80.264 102.039 73.9105Z" fill="#FFC100"/>
<path d="M111.895 138.537H69.1805C69.0843 138.537 68.9891 138.519 68.9001 138.482C68.8111 138.446 68.7302 138.392 68.662 138.324C68.5939 138.257 68.5398 138.176 68.5029 138.087C68.4659 137.999 68.4469 137.903 68.4469 137.807C68.4464 137.711 68.465 137.615 68.5016 137.526C68.5383 137.437 68.5923 137.356 68.6605 137.287C68.7288 137.219 68.8099 137.165 68.8991 137.128C68.9884 137.092 69.084 137.073 69.1805 137.074H111.895C111.991 137.074 112.086 137.093 112.175 137.13C112.263 137.167 112.344 137.221 112.412 137.289C112.48 137.357 112.533 137.438 112.57 137.527C112.606 137.616 112.625 137.711 112.624 137.807C112.624 138.001 112.547 138.186 112.41 138.323C112.274 138.46 112.088 138.537 111.895 138.537Z" fill="#FFC100"/>
<path d="M113.285 87.8214H67.7855C66.8465 87.8214 66.0852 88.5826 66.0852 89.5217V94.8853C66.0852 95.8244 66.8465 96.5856 67.7855 96.5856H113.285C114.224 96.5856 114.986 95.8244 114.986 94.8853V89.5217C114.986 88.5826 114.224 87.8214 113.285 87.8214Z" fill="#FFC100"/>
<path d="M113.285 104.213H67.7855C66.8465 104.213 66.0852 104.975 66.0852 105.914V111.277C66.0852 112.216 66.8465 112.978 67.7855 112.978H113.285C114.224 112.978 114.986 112.216 114.986 111.277V105.914C114.986 104.975 114.224 104.213 113.285 104.213Z" fill="#FFC100"/>
<path d="M98.636 70.522L93.849 67.766V65.4891C94.5422 64.6505 95.0443 63.671 95.3203 62.6186C95.4851 62.6771 95.6586 62.7072 95.8334 62.7077C96.427 62.7077 96.8044 60.8675 96.868 59.5531C97.5591 58.0902 96.6178 57.2338 96.6178 57.2338C96.6178 57.2338 97.0079 56.8437 97.2665 55.2791C97.5252 53.7145 96.3549 54.3675 95.4433 52.9344C94.5317 51.5012 93.8787 49.9409 90.8852 49.9409C90.0604 49.9138 89.2465 50.1354 88.5493 50.577C87.8521 51.0186 87.3039 51.6597 86.9759 52.4171C86.2308 52.4198 85.4883 52.5065 84.7626 52.6757C83.8468 52.9344 83.5881 55.9321 84.3683 57.1066C84.7176 57.7484 84.9039 58.4662 84.911 59.1969C84.7033 58.9425 84.487 58.8747 84.3683 59.4513C84.1097 60.753 85.1527 62.5762 85.1527 62.5762L85.6912 62.4236C85.9625 63.5482 86.4859 64.5965 87.2219 65.4891V67.766L82.4348 70.522C81.8758 70.8448 81.4115 71.3089 81.0885 71.8678C80.7655 72.4268 80.5952 73.0608 80.5947 73.7063V75.2836C83.4417 77.483 86.9378 78.6761 90.5355 78.6761C94.1331 78.6761 97.6292 77.483 100.476 75.2836V73.7063C100.477 73.0606 100.307 72.4263 99.9835 71.8672C99.6605 71.3081 99.1957 70.8442 98.636 70.522Z" fill="#263238"/>
<path d="M72.2799 110.798C72.1702 110.797 72.0653 110.753 71.9874 110.675C71.9457 110.638 71.9124 110.592 71.8897 110.541C71.867 110.49 71.8555 110.434 71.8559 110.378C71.8572 110.302 71.8792 110.227 71.9195 110.162L72.6827 108.941L71.1945 108.988C71.1384 108.991 71.0822 108.983 71.0296 108.963C70.977 108.943 70.9292 108.913 70.8892 108.873C70.8201 108.796 70.7819 108.695 70.7819 108.591C70.7819 108.487 70.8201 108.387 70.8892 108.309C70.9283 108.268 70.9759 108.236 71.0286 108.216C71.0814 108.195 71.138 108.187 71.1945 108.191L72.6616 108.246L71.9068 107.029C71.8658 106.963 71.8438 106.886 71.8432 106.808C71.8428 106.752 71.8543 106.697 71.877 106.646C71.8996 106.595 71.9329 106.549 71.9747 106.512C72.0526 106.434 72.1575 106.39 72.2672 106.389C72.3395 106.389 72.4101 106.41 72.4709 106.449C72.5317 106.488 72.5802 106.544 72.6107 106.609L73.3357 107.919L74.0523 106.618C74.0863 106.548 74.1386 106.489 74.2036 106.447C74.2687 106.406 74.3439 106.382 74.4212 106.38C74.4748 106.38 74.5277 106.392 74.5766 106.414C74.6255 106.436 74.6693 106.468 74.7052 106.507C74.7831 106.588 74.8258 106.696 74.824 106.808C74.8237 106.881 74.8048 106.953 74.7689 107.016L74.0014 108.246L75.4897 108.191C75.5461 108.187 75.6028 108.195 75.6555 108.216C75.7083 108.236 75.7559 108.268 75.7949 108.309C75.8672 108.384 75.9069 108.485 75.9052 108.589C75.9049 108.694 75.8656 108.795 75.7949 108.873C75.755 108.913 75.7072 108.943 75.6545 108.963C75.6019 108.983 75.5457 108.991 75.4897 108.988L73.9929 108.941L74.7392 110.149C74.781 110.217 74.803 110.295 74.8028 110.374C74.8028 110.487 74.7581 110.595 74.6786 110.674C74.5991 110.754 74.4912 110.798 74.3788 110.798C74.3061 110.797 74.2352 110.775 74.175 110.734C74.1147 110.694 74.0677 110.636 74.0396 110.569L73.3315 109.297L72.6276 110.569C72.5964 110.636 72.5474 110.692 72.4861 110.733C72.4247 110.773 72.3534 110.796 72.2799 110.798Z" fill="#263238"/>
<path d="M79.1573 110.798C79.0475 110.797 78.9427 110.753 78.8647 110.675C78.823 110.638 78.7897 110.592 78.7671 110.541C78.7444 110.49 78.7329 110.434 78.7333 110.378C78.7346 110.302 78.7566 110.227 78.7969 110.162L79.5601 108.941L78.0761 108.988C78.0195 108.99 77.9629 108.981 77.9097 108.962C77.8566 108.942 77.8079 108.912 77.7666 108.873C77.7103 108.815 77.6728 108.742 77.6589 108.662C77.6451 108.582 77.6555 108.5 77.6889 108.427C77.7223 108.353 77.7771 108.291 77.8462 108.249C77.9152 108.207 77.9953 108.187 78.0761 108.191L79.5389 108.246L78.7842 107.029C78.7431 106.963 78.7211 106.886 78.7206 106.808C78.7202 106.752 78.7317 106.697 78.7543 106.646C78.777 106.595 78.8103 106.549 78.852 106.512C78.9299 106.434 79.0348 106.39 79.1446 106.389C79.2168 106.389 79.2875 106.41 79.3483 106.449C79.4091 106.488 79.4575 106.544 79.488 106.609L80.2131 107.919L80.9296 106.618C80.9636 106.548 81.016 106.489 81.081 106.447C81.146 106.406 81.2212 106.382 81.2985 106.38C81.3522 106.38 81.4053 106.391 81.4543 106.413C81.5033 106.435 81.547 106.467 81.5826 106.507C81.6219 106.547 81.653 106.594 81.6741 106.646C81.6952 106.697 81.7059 106.753 81.7056 106.808C81.704 106.882 81.6836 106.953 81.6462 107.016L80.8788 108.246L82.3712 108.199C82.4271 108.195 82.4831 108.204 82.5351 108.225C82.5872 108.245 82.6341 108.277 82.6723 108.318C82.7446 108.393 82.7842 108.493 82.7825 108.598C82.7823 108.703 82.743 108.804 82.6723 108.882C82.6332 108.921 82.5861 108.952 82.5341 108.971C82.4822 108.991 82.4267 109 82.3712 108.996L80.8703 108.95L81.6165 110.158C81.6583 110.225 81.6804 110.303 81.6801 110.383C81.6801 110.495 81.6354 110.603 81.5559 110.683C81.4764 110.762 81.3686 110.807 81.2561 110.807C81.1834 110.806 81.1126 110.784 81.0523 110.743C80.9921 110.702 80.945 110.645 80.9169 110.578L80.2088 109.306L79.505 110.578C79.4726 110.643 79.4231 110.697 79.3618 110.736C79.3005 110.775 79.2298 110.797 79.1573 110.798Z" fill="#263238"/>
<path d="M86.0389 110.798C85.9277 110.798 85.8211 110.754 85.7421 110.675C85.7004 110.638 85.6671 110.592 85.6444 110.541C85.6217 110.49 85.6102 110.434 85.6106 110.378C85.6119 110.302 85.6339 110.227 85.6742 110.162L86.4375 108.941L84.9534 108.988C84.8735 108.991 84.7945 108.97 84.7263 108.928C84.6582 108.886 84.6041 108.825 84.5709 108.752C84.5377 108.68 84.5269 108.599 84.5399 108.52C84.5529 108.441 84.5891 108.368 84.6439 108.309C84.684 108.268 84.7323 108.237 84.7857 108.216C84.8392 108.196 84.8963 108.187 84.9534 108.191L86.4163 108.246L85.6615 107.029C85.6205 106.963 85.5985 106.886 85.5979 106.808C85.5993 106.753 85.6116 106.698 85.6341 106.647C85.6567 106.596 85.689 106.55 85.7294 106.512C85.8083 106.433 85.9149 106.389 86.0262 106.389C86.0977 106.39 86.1674 106.411 86.2274 106.45C86.2874 106.489 86.3352 106.544 86.3654 106.609L87.0904 107.919L87.807 106.618C87.841 106.548 87.8933 106.489 87.9583 106.447C88.0234 106.406 88.0986 106.382 88.1759 106.38C88.2295 106.38 88.2827 106.391 88.3316 106.413C88.3806 106.435 88.4244 106.467 88.46 106.507C88.4993 106.547 88.5303 106.594 88.5514 106.646C88.5725 106.697 88.5832 106.753 88.5829 106.808C88.5814 106.882 88.5609 106.953 88.5236 107.016L87.7561 108.246L89.2486 108.191C89.3035 108.185 89.3589 108.191 89.4111 108.209C89.4633 108.227 89.5111 108.256 89.5513 108.293C89.5915 108.331 89.6231 108.377 89.644 108.428C89.665 108.479 89.6747 108.534 89.6726 108.589C89.6735 108.694 89.6357 108.795 89.5666 108.873C89.5267 108.913 89.4788 108.943 89.4262 108.963C89.3736 108.983 89.3174 108.991 89.2613 108.988L87.7646 108.941L88.5066 110.149C88.5484 110.217 88.5704 110.295 88.5702 110.374C88.5689 110.43 88.5566 110.485 88.534 110.536C88.5114 110.587 88.4791 110.633 88.4388 110.671C88.4019 110.711 88.3573 110.742 88.3077 110.764C88.2581 110.786 88.2046 110.798 88.1504 110.798C88.0783 110.797 88.0082 110.775 87.9486 110.734C87.8891 110.693 87.8428 110.636 87.8155 110.569L87.1031 109.297L86.3993 110.569C86.3675 110.638 86.3167 110.696 86.2528 110.737C86.1889 110.777 86.1146 110.799 86.0389 110.798Z" fill="#263238"/>
<path d="M92.9162 110.798C92.805 110.798 92.6984 110.754 92.6194 110.675C92.5395 110.597 92.4938 110.49 92.4922 110.378C92.4909 110.302 92.5115 110.227 92.5516 110.162L93.3148 108.941L91.8308 108.988C91.7742 108.99 91.7176 108.981 91.6644 108.962C91.6113 108.942 91.5626 108.912 91.5213 108.873C91.4521 108.796 91.4139 108.695 91.4139 108.591C91.4139 108.487 91.4521 108.387 91.5213 108.309C91.5622 108.27 91.6108 108.239 91.6639 108.218C91.7171 108.198 91.7739 108.189 91.8308 108.191L93.2978 108.246L92.5474 107.029C92.5063 106.963 92.4843 106.886 92.4838 106.808C92.4851 106.753 92.4974 106.698 92.5199 106.647C92.5425 106.596 92.5749 106.55 92.6152 106.512C92.6942 106.433 92.8008 106.389 92.912 106.389C92.9842 106.389 93.0549 106.41 93.1157 106.449C93.1765 106.488 93.2249 106.544 93.2554 106.609L93.9762 107.919L94.6928 106.618C94.7268 106.548 94.7791 106.489 94.8442 106.447C94.9092 106.406 94.9844 106.382 95.0617 106.38C95.1154 106.38 95.1685 106.391 95.2175 106.413C95.2664 106.435 95.3102 106.467 95.3458 106.507C95.3851 106.547 95.4162 106.594 95.4373 106.646C95.4584 106.697 95.4691 106.753 95.4687 106.808C95.4672 106.882 95.4468 106.953 95.4094 107.016L94.6419 108.246L96.1344 108.191C96.1893 108.185 96.2447 108.191 96.2969 108.209C96.3491 108.227 96.397 108.256 96.4371 108.293C96.4773 108.331 96.5089 108.377 96.5299 108.428C96.5508 108.479 96.5605 108.534 96.5584 108.589C96.5593 108.694 96.5216 108.795 96.4524 108.873C96.4125 108.913 96.3646 108.943 96.312 108.963C96.2594 108.983 96.2032 108.991 96.1471 108.988L94.6504 108.941L95.3924 110.149C95.4342 110.217 95.4563 110.295 95.456 110.374C95.4564 110.43 95.4449 110.486 95.4223 110.537C95.3996 110.588 95.3663 110.634 95.3246 110.671C95.2877 110.711 95.2431 110.742 95.1935 110.764C95.1439 110.786 95.0904 110.798 95.0363 110.798C94.9642 110.797 94.894 110.775 94.8345 110.734C94.7749 110.693 94.7286 110.636 94.7013 110.569L93.989 109.297L93.2851 110.569C93.2528 110.639 93.2006 110.698 93.135 110.739C93.0695 110.78 92.9934 110.8 92.9162 110.798Z" fill="#263238"/>
<path d="M99.7936 110.798C99.6823 110.798 99.5758 110.754 99.4968 110.675C99.4311 110.609 99.3892 110.522 99.3777 110.43C99.3662 110.337 99.3857 110.243 99.4332 110.162L100.192 108.941L98.7081 108.988C98.6515 108.99 98.5949 108.981 98.5418 108.962C98.4886 108.942 98.4399 108.912 98.3986 108.873C98.3295 108.796 98.2913 108.695 98.2913 108.591C98.2913 108.487 98.3295 108.387 98.3986 108.309C98.4396 108.27 98.4881 108.239 98.5413 108.218C98.5945 108.198 98.6512 108.189 98.7081 108.191L100.175 108.246L99.4205 107.029C99.3794 106.963 99.3574 106.886 99.3569 106.808C99.3585 106.696 99.4042 106.59 99.4841 106.512C99.563 106.433 99.6696 106.389 99.7809 106.389C99.8531 106.389 99.9237 106.41 99.9845 106.449C100.045 106.488 100.094 106.544 100.124 106.609L100.845 107.919L101.562 106.618C101.596 106.548 101.648 106.489 101.713 106.447C101.778 106.406 101.853 106.382 101.931 106.38C101.985 106.38 102.039 106.391 102.088 106.413C102.138 106.435 102.182 106.467 102.219 106.507C102.297 106.588 102.339 106.696 102.338 106.808C102.336 106.882 102.316 106.953 102.278 107.016L101.511 108.246L103.003 108.191C103.058 108.185 103.114 108.191 103.166 108.209C103.218 108.227 103.266 108.256 103.306 108.293C103.346 108.331 103.378 108.377 103.399 108.428C103.42 108.479 103.429 108.534 103.427 108.589C103.428 108.694 103.39 108.795 103.321 108.873C103.281 108.913 103.234 108.943 103.181 108.963C103.128 108.983 103.072 108.991 103.016 108.988L101.519 108.941L102.261 110.149C102.303 110.217 102.325 110.295 102.325 110.374C102.325 110.43 102.314 110.486 102.291 110.537C102.268 110.588 102.235 110.634 102.193 110.671C102.157 110.711 102.112 110.742 102.062 110.764C102.013 110.786 101.959 110.798 101.905 110.798C101.833 110.797 101.763 110.775 101.703 110.734C101.644 110.693 101.598 110.636 101.57 110.569L100.858 109.297L100.154 110.569C100.122 110.638 100.071 110.696 100.007 110.737C99.9436 110.777 99.8693 110.799 99.7936 110.798Z" fill="#263238"/>
<path d="M106.671 110.798C106.561 110.797 106.456 110.753 106.378 110.675C106.337 110.638 106.303 110.592 106.281 110.541C106.258 110.49 106.247 110.434 106.247 110.378C106.248 110.302 106.27 110.227 106.311 110.162L107.069 108.941L105.585 108.988C105.531 108.992 105.476 108.985 105.424 108.966C105.373 108.948 105.326 108.919 105.286 108.882C105.246 108.844 105.214 108.799 105.193 108.749C105.171 108.698 105.161 108.644 105.161 108.589C105.161 108.537 105.171 108.486 105.191 108.438C105.21 108.39 105.239 108.346 105.276 108.309C105.315 108.268 105.363 108.236 105.415 108.216C105.468 108.195 105.525 108.187 105.581 108.191L107.048 108.246L106.294 107.029C106.253 106.963 106.23 106.886 106.23 106.808C106.232 106.696 106.277 106.59 106.357 106.512C106.436 106.433 106.543 106.389 106.654 106.389C106.726 106.389 106.797 106.41 106.858 106.449C106.918 106.488 106.967 106.544 106.997 106.609L107.718 107.919L108.439 106.618C108.473 106.549 108.524 106.49 108.589 106.448C108.653 106.407 108.727 106.383 108.804 106.38C108.858 106.38 108.912 106.391 108.961 106.413C109.011 106.435 109.056 106.467 109.092 106.507C109.17 106.588 109.212 106.696 109.211 106.808C109.21 106.881 109.192 106.953 109.156 107.016L108.388 108.246L109.876 108.191C109.933 108.187 109.99 108.195 110.042 108.216C110.095 108.236 110.143 108.268 110.182 108.309C110.254 108.384 110.294 108.485 110.292 108.589C110.292 108.694 110.252 108.795 110.182 108.873C110.142 108.913 110.094 108.943 110.041 108.963C109.989 108.983 109.932 108.991 109.876 108.988L108.38 108.941L109.122 110.149C109.163 110.217 109.186 110.295 109.185 110.374C109.184 110.486 109.138 110.593 109.058 110.671C108.981 110.75 108.876 110.796 108.766 110.798C108.693 110.797 108.623 110.775 108.564 110.734C108.504 110.693 108.458 110.636 108.431 110.569L107.718 109.297L107.014 110.569C106.984 110.635 106.936 110.692 106.875 110.732C106.814 110.773 106.744 110.796 106.671 110.798Z" fill="#263238"/>
<g style="mix-blend-mode:multiply">
<path d="M128.062 24.8992H53.0047V29.6014H128.062V24.8992Z" fill="#FFC100"/>
</g>
<path d="M98.6954 16.2368H82.3712C82.0766 16.2368 81.7941 16.1197 81.5857 15.9114C81.3774 15.7031 81.2604 15.4205 81.2604 15.1259C81.2604 14.8312 81.3774 14.5487 81.5857 14.3404C81.7941 14.132 82.0766 14.015 82.3712 14.015H98.6954C98.99 14.015 99.2726 14.132 99.4809 14.3404C99.6893 14.5487 99.8063 14.8312 99.8063 15.1259C99.8063 15.4205 99.6893 15.7031 99.4809 15.9114C99.2726 16.1197 98.99 16.2368 98.6954 16.2368Z" fill="#FFC100" stroke="#263238" stroke-width="1.33739" stroke-linecap="round" stroke-linejoin="round"/>
<path d="M94.9854 153.033C94.9862 152.152 94.7257 151.291 94.2368 150.558C93.748 149.825 93.0527 149.254 92.239 148.917C91.4253 148.579 90.5298 148.491 89.6658 148.662C88.8018 148.834 88.0081 149.258 87.3853 149.881C86.7624 150.504 86.3383 151.298 86.1666 152.162C85.995 153.026 86.0835 153.921 86.421 154.735C86.7585 155.548 87.3298 156.244 88.0626 156.733C88.7953 157.221 89.6567 157.482 90.5376 157.481C91.7169 157.48 92.8475 157.011 93.6814 156.177C94.5153 155.343 94.9843 154.213 94.9854 153.033Z" fill="#FFC100"/>
<path d="M92.7933 150.778H88.2819V155.289H92.7933V150.778Z" fill="#FFC100" stroke="#263238" stroke-width="1.33739" stroke-linecap="round" stroke-linejoin="round"/>
<path d="M144.276 101.839C144.276 101.839 138.365 86.8208 143.627 85.0357C149.105 83.1744 148.864 93.0918 148.652 97.9255C148.206 108.254 147.066 110.175 146.214 107.652L144.276 101.839ZM142.499 113.554C144.123 115.674 144.581 113.478 141.651 103.56C140.278 98.8964 137.293 89.4623 132.713 93.0028C128.316 96.3948 138.781 108.691 138.781 108.691L142.499 113.554ZM139.362 122.162C140.909 123.535 140.939 121.801 137.263 114.64C135.537 111.286 131.886 104.498 128.897 107.856C126.027 111.095 135.809 118.969 135.809 118.969L139.362 122.162ZM135.97 132.397C137.517 133.775 137.547 132.037 133.871 124.879C132.145 121.526 128.494 114.733 125.505 118.095C122.652 121.343 132.404 129.217 132.404 129.217L135.97 132.397ZM145.764 111.561C143.288 112.528 145.255 113.58 155.597 113.55C160.447 113.55 170.352 113.33 168.241 107.94C166.218 102.763 151.488 109.357 151.488 109.357L145.764 111.561ZM142.944 118.447C140.324 118.901 142.046 120.326 152.188 122.352C156.941 123.306 166.689 125.066 165.692 119.384C164.738 113.906 148.991 117.442 148.991 117.442L142.944 118.447ZM139.79 126.855C137.56 127.178 138.984 128.42 147.511 130.37C151.509 131.286 159.714 133.003 159.002 128.157C158.323 123.493 144.925 126.13 144.925 126.13L139.79 126.855ZM137.394 134.644C135.211 135.2 136.758 136.285 145.45 137.32C149.521 137.803 157.861 138.643 156.644 133.898C155.47 129.344 142.427 133.376 142.427 133.376L137.394 134.644ZM150.174 103.111C148.902 105.96 151.543 105.528 160.524 97.6923C164.73 94.0161 173.168 86.3247 166.485 82.496C160.07 78.8156 153.171 96.5729 153.171 96.5729L150.174 103.111ZM137.725 144.791C136.381 145.575 137.7 145.88 143.865 144.651C146.756 144.078 152.637 142.806 150.649 140.296C148.724 137.879 140.837 142.967 140.837 142.967L137.725 144.791Z" fill="#FFC100"/>
<path opacity="0.3" d="M144.276 101.839C144.276 101.839 138.365 86.8208 143.627 85.0357C149.105 83.1744 148.864 93.0918 148.652 97.9255C148.206 108.254 147.066 110.175 146.214 107.652L144.276 101.839ZM142.499 113.554C144.123 115.674 144.581 113.478 141.651 103.56C140.278 98.8964 137.293 89.4623 132.713 93.0028C128.316 96.3948 138.781 108.691 138.781 108.691L142.499 113.554ZM139.362 122.162C140.909 123.535 140.939 121.801 137.263 114.64C135.537 111.286 131.886 104.498 128.897 107.856C126.027 111.095 135.809 118.969 135.809 118.969L139.362 122.162ZM135.97 132.397C137.517 133.775 137.547 132.037 133.871 124.879C132.145 121.526 128.494 114.733 125.505 118.095C122.652 121.343 132.404 129.217 132.404 129.217L135.97 132.397ZM145.764 111.561C143.288 112.528 145.255 113.58 155.597 113.55C160.447 113.55 170.352 113.33 168.241 107.94C166.218 102.763 151.488 109.357 151.488 109.357L145.764 111.561ZM142.944 118.447C140.324 118.901 142.046 120.326 152.188 122.352C156.941 123.306 166.689 125.066 165.692 119.384C164.738 113.906 148.991 117.442 148.991 117.442L142.944 118.447ZM139.79 126.855C137.56 127.178 138.984 128.42 147.511 130.37C151.509 131.286 159.714 133.003 159.002 128.157C158.323 123.493 144.925 126.13 144.925 126.13L139.79 126.855ZM137.394 134.644C135.211 135.2 136.758 136.285 145.45 137.32C149.521 137.803 157.861 138.643 156.644 133.898C155.47 129.344 142.427 133.376 142.427 133.376L137.394 134.644ZM150.174 103.111C148.902 105.96 151.543 105.528 160.524 97.6923C164.73 94.0161 173.168 86.3247 166.485 82.496C160.07 78.8156 153.171 96.5729 153.171 96.5729L150.174 103.111ZM137.725 144.791C136.381 145.575 137.7 145.88 143.865 144.651C146.756 144.078 152.637 142.806 150.649 140.296C148.724 137.879 140.837 142.967 140.837 142.967L137.725 144.791Z" fill="white"/>
<path d="M146.884 108.831L145.853 91.6884L146.884 108.831ZM143.623 114.487L137.11 99.7444L143.623 114.487ZM160.43 110.2L144.823 112.439L160.43 110.2ZM140.248 122.433L131.797 111.591L140.248 122.433ZM141.732 119.109L153.375 119.694L141.732 119.109ZM138.976 127.423L147.88 128.305L138.976 127.423ZM136.826 132.707L132.404 126.054L136.826 132.707ZM136.317 135.056L146.786 135.153L136.317 135.056ZM134.197 154.695C134.267 154.69 134.333 154.657 134.379 154.604C134.425 154.551 134.448 154.482 134.443 154.411C133.778 144.413 137.644 128.038 143.848 114.597C147.812 106.007 163.352 89.1231 163.517 88.9535C163.567 88.9035 163.595 88.8356 163.595 88.7649C163.595 88.6941 163.567 88.6263 163.517 88.5762C163.493 88.5516 163.464 88.532 163.432 88.5187C163.4 88.5054 163.365 88.4985 163.331 88.4985C163.296 88.4985 163.262 88.5054 163.23 88.5187C163.198 88.532 163.169 88.5516 163.144 88.5762C162.987 88.7458 147.384 105.693 143.385 114.36C137.068 128.127 133.252 144.206 133.93 154.445C133.935 154.513 133.966 154.576 134.015 154.622C134.065 154.668 134.13 154.695 134.197 154.695ZM146.879 109.094C146.949 109.089 147.015 109.058 147.062 109.005C147.109 108.953 147.133 108.884 147.129 108.814L146.116 91.6629C146.114 91.628 146.106 91.5938 146.091 91.5622C146.076 91.5306 146.055 91.5024 146.029 91.4791C146.003 91.4558 145.972 91.4379 145.939 91.4265C145.906 91.4152 145.871 91.4105 145.836 91.4128C145.766 91.4171 145.701 91.449 145.654 91.5013C145.607 91.5537 145.583 91.6224 145.586 91.6926L146.616 108.835C146.62 108.903 146.649 108.966 146.698 109.013C146.747 109.059 146.812 109.085 146.879 109.085V109.094ZM143.716 114.729C143.78 114.7 143.829 114.648 143.855 114.583C143.88 114.518 143.879 114.445 143.852 114.381L137.335 99.6384C137.307 99.5743 137.254 99.524 137.189 99.4986C137.124 99.4731 137.051 99.4746 136.987 99.5028C136.923 99.5309 136.873 99.5833 136.847 99.6485C136.822 99.7137 136.823 99.7863 136.852 99.8504L143.364 114.593C143.385 114.64 143.418 114.681 143.461 114.709C143.504 114.738 143.554 114.754 143.606 114.754C143.65 114.756 143.694 114.748 143.733 114.729H143.716ZM144.844 112.694L160.443 110.463C160.481 110.462 160.518 110.454 160.552 110.438C160.586 110.421 160.616 110.398 160.641 110.37C160.665 110.341 160.683 110.308 160.694 110.271C160.705 110.235 160.707 110.197 160.702 110.16C160.697 110.123 160.684 110.087 160.664 110.055C160.644 110.023 160.618 109.995 160.587 109.974C160.555 109.953 160.52 109.939 160.483 109.933C160.446 109.927 160.408 109.928 160.371 109.938L144.772 112.168C144.702 112.172 144.637 112.204 144.591 112.257C144.545 112.309 144.522 112.378 144.526 112.448C144.531 112.517 144.563 112.582 144.615 112.629C144.668 112.675 144.736 112.698 144.806 112.694H144.844ZM140.396 122.645C140.452 122.601 140.488 122.538 140.496 122.468C140.505 122.398 140.486 122.328 140.443 122.272L131.988 111.409C131.945 111.353 131.881 111.316 131.811 111.307C131.74 111.298 131.669 111.317 131.613 111.36C131.557 111.403 131.52 111.467 131.511 111.538C131.502 111.608 131.521 111.679 131.564 111.735L140.036 122.615C140.06 122.647 140.092 122.673 140.128 122.69C140.164 122.708 140.203 122.717 140.244 122.717C140.307 122.714 140.367 122.688 140.413 122.645H140.396ZM153.608 119.707C153.611 119.636 153.585 119.568 153.538 119.517C153.49 119.465 153.424 119.434 153.354 119.431L141.732 118.842C141.667 118.846 141.605 118.874 141.559 118.921C141.514 118.968 141.487 119.03 141.483 119.095C141.48 119.161 141.501 119.225 141.542 119.276C141.583 119.327 141.642 119.361 141.706 119.372L153.35 119.961C153.42 119.963 153.488 119.938 153.54 119.89C153.591 119.843 153.622 119.777 153.625 119.707H153.608ZM148.126 128.331C148.13 128.296 148.127 128.261 148.117 128.227C148.107 128.193 148.091 128.162 148.069 128.134C148.047 128.107 148.019 128.085 147.988 128.068C147.957 128.052 147.923 128.041 147.888 128.038L138.984 127.161C138.95 127.157 138.915 127.16 138.882 127.17C138.848 127.181 138.817 127.197 138.791 127.219C138.764 127.241 138.742 127.268 138.725 127.299C138.709 127.33 138.699 127.363 138.696 127.398C138.69 127.468 138.712 127.537 138.756 127.591C138.8 127.644 138.864 127.679 138.933 127.686L147.838 128.568H147.863C147.931 128.573 147.999 128.551 148.051 128.506C148.103 128.462 148.136 128.399 148.143 128.331H148.126ZM136.953 132.927C137.012 132.888 137.053 132.827 137.068 132.758C137.082 132.689 137.068 132.617 137.03 132.558L132.628 125.906C132.588 125.848 132.527 125.809 132.459 125.795C132.39 125.782 132.319 125.796 132.26 125.833C132.201 125.872 132.16 125.933 132.145 126.002C132.131 126.071 132.145 126.143 132.183 126.202L136.584 132.855C136.61 132.891 136.643 132.921 136.682 132.942C136.721 132.962 136.765 132.973 136.809 132.974C136.867 132.977 136.923 132.96 136.97 132.927H136.953ZM147.053 135.153C147.052 135.083 147.024 135.017 146.975 134.967C146.926 134.917 146.86 134.888 146.79 134.886L136.322 134.788C136.252 134.788 136.185 134.816 136.136 134.865C136.086 134.915 136.059 134.982 136.059 135.051C136.058 135.086 136.064 135.121 136.076 135.154C136.089 135.187 136.108 135.216 136.133 135.241C136.157 135.266 136.187 135.286 136.219 135.299C136.252 135.312 136.287 135.319 136.322 135.318L146.79 135.416C146.826 135.418 146.862 135.412 146.895 135.4C146.929 135.387 146.96 135.368 146.986 135.344C147.012 135.319 147.033 135.29 147.047 135.257C147.062 135.224 147.07 135.189 147.07 135.153H147.053ZM133.006 150.807C133.027 150.761 134.812 145.842 140.18 144.668C140.249 144.652 140.309 144.61 140.348 144.551C140.386 144.491 140.399 144.419 140.384 144.35C140.366 144.282 140.324 144.223 140.265 144.186C140.205 144.149 140.134 144.136 140.066 144.15C134.405 145.389 132.527 150.583 132.506 150.633C132.484 150.7 132.489 150.773 132.52 150.836C132.55 150.9 132.605 150.949 132.671 150.973H132.756C132.812 150.978 132.869 150.964 132.917 150.934C132.965 150.904 133.002 150.86 133.023 150.807H133.006ZM134.197 154.695C134.267 154.69 134.333 154.657 134.379 154.604C134.425 154.551 134.448 154.482 134.443 154.411C133.778 144.413 137.644 128.038 143.848 114.597C147.812 106.007 163.352 89.1231 163.517 88.9535C163.567 88.9035 163.595 88.8356 163.595 88.7649C163.595 88.6941 163.567 88.6263 163.517 88.5762C163.493 88.5516 163.464 88.532 163.432 88.5187C163.4 88.5054 163.365 88.4985 163.331 88.4985C163.296 88.4985 163.262 88.5054 163.23 88.5187C163.198 88.532 163.169 88.5516 163.144 88.5762C162.987 88.7458 147.384 105.693 143.385 114.36C137.068 128.127 133.252 144.206 133.93 154.445C133.935 154.513 133.966 154.576 134.015 154.622C134.065 154.668 134.13 154.695 134.197 154.695ZM146.879 109.094C146.949 109.089 147.015 109.058 147.062 109.005C147.109 108.953 147.133 108.884 147.129 108.814L146.116 91.6629C146.114 91.628 146.106 91.5938 146.091 91.5622C146.076 91.5306 146.055 91.5024 146.029 91.4791C146.003 91.4558 145.972 91.4379 145.939 91.4265C145.906 91.4152 145.871 91.4105 145.836 91.4128C145.766 91.4171 145.701 91.449 145.654 91.5013C145.607 91.5537 145.583 91.6224 145.586 91.6926L146.616 108.835C146.62 108.903 146.649 108.966 146.698 109.013C146.747 109.059 146.812 109.085 146.879 109.085V109.094ZM143.716 114.729C143.78 114.7 143.829 114.648 143.855 114.583C143.88 114.518 143.879 114.445 143.852 114.381L137.335 99.6384C137.307 99.5743 137.254 99.524 137.189 99.4986C137.124 99.4731 137.051 99.4746 136.987 99.5028C136.923 99.5309 136.873 99.5833 136.847 99.6485C136.822 99.7137 136.823 99.7863 136.852 99.8504L143.364 114.593C143.385 114.64 143.418 114.681 143.461 114.709C143.504 114.738 143.554 114.754 143.606 114.754C143.65 114.756 143.694 114.748 143.733 114.729H143.716ZM144.844 112.694L160.443 110.463C160.481 110.462 160.518 110.454 160.552 110.438C160.586 110.421 160.616 110.398 160.641 110.37C160.665 110.341 160.683 110.308 160.694 110.271C160.705 110.235 160.707 110.197 160.702 110.16C160.697 110.123 160.684 110.087 160.664 110.055C160.644 110.023 160.618 109.995 160.587 109.974C160.555 109.953 160.52 109.939 160.483 109.933C160.446 109.927 160.408 109.928 160.371 109.938L144.772 112.168C144.702 112.172 144.637 112.204 144.591 112.257C144.545 112.309 144.522 112.378 144.526 112.448C144.531 112.517 144.563 112.582 144.615 112.629C144.668 112.675 144.736 112.698 144.806 112.694H144.844ZM140.396 122.645C140.452 122.601 140.488 122.538 140.496 122.468C140.505 122.398 140.486 122.328 140.443 122.272L131.988 111.409C131.967 111.381 131.94 111.358 131.91 111.34C131.879 111.323 131.846 111.311 131.811 111.307C131.776 111.302 131.74 111.305 131.707 111.314C131.673 111.323 131.641 111.339 131.613 111.36C131.585 111.381 131.562 111.408 131.544 111.439C131.527 111.469 131.515 111.503 131.511 111.538C131.506 111.572 131.509 111.608 131.518 111.642C131.527 111.676 131.543 111.707 131.564 111.735L140.036 122.615C140.06 122.647 140.092 122.673 140.128 122.69C140.164 122.708 140.203 122.717 140.244 122.717C140.307 122.714 140.367 122.688 140.413 122.645H140.396ZM153.608 119.707C153.611 119.636 153.585 119.568 153.538 119.517C153.49 119.465 153.424 119.434 153.354 119.431L141.732 118.842C141.667 118.846 141.605 118.874 141.559 118.921C141.514 118.968 141.487 119.03 141.483 119.095C141.48 119.161 141.501 119.225 141.542 119.276C141.583 119.327 141.642 119.361 141.706 119.372L153.35 119.961C153.42 119.963 153.488 119.938 153.54 119.89C153.591 119.843 153.622 119.777 153.625 119.707H153.608ZM148.126 128.331C148.13 128.296 148.127 128.261 148.117 128.227C148.107 128.193 148.091 128.162 148.069 128.134C148.047 128.107 148.019 128.085 147.988 128.068C147.957 128.052 147.923 128.041 147.888 128.038L138.984 127.161C138.95 127.157 138.915 127.16 138.882 127.17C138.848 127.181 138.817 127.197 138.791 127.219C138.764 127.241 138.742 127.268 138.725 127.299C138.709 127.33 138.699 127.363 138.696 127.398C138.69 127.468 138.712 127.537 138.756 127.591C138.8 127.644 138.864 127.679 138.933 127.686L147.838 128.568H147.863C147.931 128.573 147.999 128.551 148.051 128.506C148.103 128.462 148.136 128.399 148.143 128.331H148.126ZM136.953 132.927C137.012 132.888 137.053 132.827 137.068 132.758C137.082 132.689 137.068 132.617 137.03 132.558L132.628 125.906C132.588 125.848 132.527 125.809 132.459 125.795C132.39 125.782 132.319 125.796 132.26 125.833C132.201 125.872 132.16 125.933 132.145 126.002C132.131 126.071 132.145 126.143 132.183 126.202L136.584 132.855C136.61 132.891 136.643 132.921 136.682 132.942C136.721 132.962 136.765 132.973 136.809 132.974C136.867 132.977 136.923 132.96 136.97 132.927H136.953ZM147.053 135.153C147.052 135.083 147.024 135.017 146.975 134.967C146.926 134.917 146.86 134.888 146.79 134.886L136.322 134.788C136.252 134.788 136.185 134.816 136.136 134.865C136.086 134.915 136.059 134.982 136.059 135.051C136.058 135.086 136.064 135.121 136.076 135.154C136.089 135.187 136.108 135.216 136.133 135.241C136.157 135.266 136.187 135.286 136.219 135.299C136.252 135.312 136.287 135.319 136.322 135.318L146.79 135.416C146.826 135.418 146.862 135.412 146.895 135.4C146.929 135.387 146.96 135.368 146.986 135.344C147.012 135.319 147.033 135.29 147.047 135.257C147.062 135.224 147.07 135.189 147.07 135.153H147.053ZM133.006 150.807C133.027 150.761 134.812 145.842 140.18 144.668C140.249 144.652 140.309 144.61 140.348 144.551C140.386 144.491 140.399 144.419 140.384 144.35C140.366 144.282 140.324 144.223 140.265 144.186C140.205 144.149 140.134 144.136 140.066 144.15C134.405 145.389 132.527 150.583 132.506 150.633C132.484 150.7 132.489 150.773 132.52 150.836C132.55 150.9 132.605 150.949 132.671 150.973H132.756C132.812 150.978 132.869 150.964 132.917 150.934C132.965 150.904 133.002 150.86 133.023 150.807H133.006Z" fill="#FFC100"/>
<path opacity="0.2" d="M146.884 108.831L145.853 91.6884L146.884 108.831ZM143.623 114.487L137.11 99.7444L143.623 114.487ZM160.43 110.2L144.823 112.439L160.43 110.2ZM140.248 122.433L131.797 111.591L140.248 122.433ZM141.732 119.109L153.375 119.694L141.732 119.109ZM138.976 127.423L147.88 128.305L138.976 127.423ZM136.826 132.707L132.404 126.054L136.826 132.707ZM136.317 135.056L146.786 135.153L136.317 135.056ZM134.197 154.695C134.267 154.69 134.333 154.657 134.379 154.604C134.425 154.551 134.448 154.482 134.443 154.411C133.778 144.413 137.644 128.038 143.848 114.597C147.812 106.007 163.352 89.1231 163.517 88.9535C163.567 88.9035 163.595 88.8356 163.595 88.7649C163.595 88.6941 163.567 88.6263 163.517 88.5762C163.493 88.5516 163.464 88.532 163.432 88.5187C163.4 88.5054 163.365 88.4985 163.331 88.4985C163.296 88.4985 163.262 88.5054 163.23 88.5187C163.198 88.532 163.169 88.5516 163.144 88.5762C162.987 88.7458 147.384 105.693 143.385 114.36C137.068 128.127 133.252 144.206 133.93 154.445C133.935 154.513 133.966 154.576 134.015 154.622C134.065 154.668 134.13 154.695 134.197 154.695ZM146.879 109.094C146.949 109.089 147.015 109.058 147.062 109.005C147.109 108.953 147.133 108.884 147.129 108.814L146.116 91.6629C146.114 91.628 146.106 91.5938 146.091 91.5622C146.076 91.5306 146.055 91.5024 146.029 91.4791C146.003 91.4558 145.972 91.4379 145.939 91.4265C145.906 91.4152 145.871 91.4105 145.836 91.4128C145.766 91.4171 145.701 91.449 145.654 91.5013C145.607 91.5537 145.583 91.6224 145.586 91.6926L146.616 108.835C146.62 108.903 146.649 108.966 146.698 109.013C146.747 109.059 146.812 109.085 146.879 109.085V109.094ZM143.716 114.729C143.78 114.7 143.829 114.648 143.855 114.583C143.88 114.518 143.879 114.445 143.852 114.381L137.335 99.6384C137.307 99.5743 137.254 99.524 137.189 99.4986C137.124 99.4731 137.051 99.4746 136.987 99.5028C136.923 99.5309 136.873 99.5833 136.847 99.6485C136.822 99.7137 136.823 99.7863 136.852 99.8504L143.364 114.593C143.385 114.64 143.418 114.681 143.461 114.709C143.504 114.738 143.554 114.754 143.606 114.754C143.65 114.756 143.694 114.748 143.733 114.729H143.716ZM144.844 112.694L160.443 110.463C160.481 110.462 160.518 110.454 160.552 110.438C160.586 110.421 160.616 110.398 160.641 110.37C160.665 110.341 160.683 110.308 160.694 110.271C160.705 110.235 160.707 110.197 160.702 110.16C160.697 110.123 160.684 110.087 160.664 110.055C160.644 110.023 160.618 109.995 160.587 109.974C160.555 109.953 160.52 109.939 160.483 109.933C160.446 109.927 160.408 109.928 160.371 109.938L144.772 112.168C144.702 112.172 144.637 112.204 144.591 112.257C144.545 112.309 144.522 112.378 144.526 112.448C144.531 112.517 144.563 112.582 144.615 112.629C144.668 112.675 144.736 112.698 144.806 112.694H144.844ZM140.396 122.645C140.452 122.601 140.488 122.538 140.496 122.468C140.505 122.398 140.486 122.328 140.443 122.272L131.988 111.409C131.945 111.353 131.881 111.316 131.811 111.307C131.74 111.298 131.669 111.317 131.613 111.36C131.557 111.403 131.52 111.467 131.511 111.538C131.502 111.608 131.521 111.679 131.564 111.735L140.036 122.615C140.06 122.647 140.092 122.673 140.128 122.69C140.164 122.708 140.203 122.717 140.244 122.717C140.307 122.714 140.367 122.688 140.413 122.645H140.396ZM153.608 119.707C153.611 119.636 153.585 119.568 153.538 119.517C153.49 119.465 153.424 119.434 153.354 119.431L141.732 118.842C141.667 118.846 141.605 118.874 141.559 118.921C141.514 118.968 141.487 119.03 141.483 119.095C141.48 119.161 141.501 119.225 141.542 119.276C141.583 119.327 141.642 119.361 141.706 119.372L153.35 119.961C153.42 119.963 153.488 119.938 153.54 119.89C153.591 119.843 153.622 119.777 153.625 119.707H153.608ZM148.126 128.331C148.13 128.296 148.127 128.261 148.117 128.227C148.107 128.193 148.091 128.162 148.069 128.134C148.047 128.107 148.019 128.085 147.988 128.068C147.957 128.052 147.923 128.041 147.888 128.038L138.984 127.161C138.95 127.157 138.915 127.16 138.882 127.17C138.848 127.181 138.817 127.197 138.791 127.219C138.764 127.241 138.742 127.268 138.725 127.299C138.709 127.33 138.699 127.363 138.696 127.398C138.69 127.468 138.712 127.537 138.756 127.591C138.8 127.644 138.864 127.679 138.933 127.686L147.838 128.568H147.863C147.931 128.573 147.999 128.551 148.051 128.506C148.103 128.462 148.136 128.399 148.143 128.331H148.126ZM136.953 132.927C137.012 132.888 137.053 132.827 137.068 132.758C137.082 132.689 137.068 132.617 137.03 132.558L132.628 125.906C132.588 125.848 132.527 125.809 132.459 125.795C132.39 125.782 132.319 125.796 132.26 125.833C132.201 125.872 132.16 125.933 132.145 126.002C132.131 126.071 132.145 126.143 132.183 126.202L136.584 132.855C136.61 132.891 136.643 132.921 136.682 132.942C136.721 132.962 136.765 132.973 136.809 132.974C136.867 132.977 136.923 132.96 136.97 132.927H136.953ZM147.053 135.153C147.052 135.083 147.024 135.017 146.975 134.967C146.926 134.917 146.86 134.888 146.79 134.886L136.322 134.788C136.252 134.788 136.185 134.816 136.136 134.865C136.086 134.915 136.059 134.982 136.059 135.051C136.058 135.086 136.064 135.121 136.076 135.154C136.089 135.187 136.108 135.216 136.133 135.241C136.157 135.266 136.187 135.286 136.219 135.299C136.252 135.312 136.287 135.319 136.322 135.318L146.79 135.416C146.826 135.418 146.862 135.412 146.895 135.4C146.929 135.387 146.96 135.368 146.986 135.344C147.012 135.319 147.033 135.29 147.047 135.257C147.062 135.224 147.07 135.189 147.07 135.153H147.053ZM133.006 150.807C133.027 150.761 134.812 145.842 140.18 144.668C140.249 144.652 140.309 144.61 140.348 144.551C140.386 144.491 140.399 144.419 140.384 144.35C140.366 144.282 140.324 144.223 140.265 144.186C140.205 144.149 140.134 144.136 140.066 144.15C134.405 145.389 132.527 150.583 132.506 150.633C132.484 150.7 132.489 150.773 132.52 150.836C132.55 150.9 132.605 150.949 132.671 150.973H132.756C132.812 150.978 132.869 150.964 132.917 150.934C132.965 150.904 133.002 150.86 133.023 150.807H133.006ZM134.197 154.695C134.267 154.69 134.333 154.657 134.379 154.604C134.425 154.551 134.448 154.482 134.443 154.411C133.778 144.413 137.644 128.038 143.848 114.597C147.812 106.007 163.352 89.1231 163.517 88.9535C163.567 88.9035 163.595 88.8356 163.595 88.7649C163.595 88.6941 163.567 88.6263 163.517 88.5762C163.493 88.5516 163.464 88.532 163.432 88.5187C163.4 88.5054 163.365 88.4985 163.331 88.4985C163.296 88.4985 163.262 88.5054 163.23 88.5187C163.198 88.532 163.169 88.5516 163.144 88.5762C162.987 88.7458 147.384 105.693 143.385 114.36C137.068 128.127 133.252 144.206 133.93 154.445C133.935 154.513 133.966 154.576 134.015 154.622C134.065 154.668 134.13 154.695 134.197 154.695ZM146.879 109.094C146.949 109.089 147.015 109.058 147.062 109.005C147.109 108.953 147.133 108.884 147.129 108.814L146.116 91.6629C146.114 91.628 146.106 91.5938 146.091 91.5622C146.076 91.5306 146.055 91.5024 146.029 91.4791C146.003 91.4558 145.972 91.4379 145.939 91.4265C145.906 91.4152 145.871 91.4105 145.836 91.4128C145.766 91.4171 145.701 91.449 145.654 91.5013C145.607 91.5537 145.583 91.6224 145.586 91.6926L146.616 108.835C146.62 108.903 146.649 108.966 146.698 109.013C146.747 109.059 146.812 109.085 146.879 109.085V109.094ZM143.716 114.729C143.78 114.7 143.829 114.648 143.855 114.583C143.88 114.518 143.879 114.445 143.852 114.381L137.335 99.6384C137.307 99.5743 137.254 99.524 137.189 99.4986C137.124 99.4731 137.051 99.4746 136.987 99.5028C136.923 99.5309 136.873 99.5833 136.847 99.6485C136.822 99.7137 136.823 99.7863 136.852 99.8504L143.364 114.593C143.385 114.64 143.418 114.681 143.461 114.709C143.504 114.738 143.554 114.754 143.606 114.754C143.65 114.756 143.694 114.748 143.733 114.729H143.716ZM144.844 112.694L160.443 110.463C160.481 110.462 160.518 110.454 160.552 110.438C160.586 110.421 160.616 110.398 160.641 110.37C160.665 110.341 160.683 110.308 160.694 110.271C160.705 110.235 160.707 110.197 160.702 110.16C160.697 110.123 160.684 110.087 160.664 110.055C160.644 110.023 160.618 109.995 160.587 109.974C160.555 109.953 160.52 109.939 160.483 109.933C160.446 109.927 160.408 109.928 160.371 109.938L144.772 112.168C144.702 112.172 144.637 112.204 144.591 112.257C144.545 112.309 144.522 112.378 144.526 112.448C144.531 112.517 144.563 112.582 144.615 112.629C144.668 112.675 144.736 112.698 144.806 112.694H144.844ZM140.396 122.645C140.452 122.601 140.488 122.538 140.496 122.468C140.505 122.398 140.486 122.328 140.443 122.272L131.988 111.409C131.967 111.381 131.94 111.358 131.91 111.34C131.879 111.323 131.846 111.311 131.811 111.307C131.776 111.302 131.74 111.305 131.707 111.314C131.673 111.323 131.641 111.339 131.613 111.36C131.585 111.381 131.562 111.408 131.544 111.439C131.527 111.469 131.515 111.503 131.511 111.538C131.506 111.572 131.509 111.608 131.518 111.642C131.527 111.676 131.543 111.707 131.564 111.735L140.036 122.615C140.06 122.647 140.092 122.673 140.128 122.69C140.164 122.708 140.203 122.717 140.244 122.717C140.307 122.714 140.367 122.688 140.413 122.645H140.396ZM153.608 119.707C153.611 119.636 153.585 119.568 153.538 119.517C153.49 119.465 153.424 119.434 153.354 119.431L141.732 118.842C141.667 118.846 141.605 118.874 141.559 118.921C141.514 118.968 141.487 119.03 141.483 119.095C141.48 119.161 141.501 119.225 141.542 119.276C141.583 119.327 141.642 119.361 141.706 119.372L153.35 119.961C153.42 119.963 153.488 119.938 153.54 119.89C153.591 119.843 153.622 119.777 153.625 119.707H153.608ZM148.126 128.331C148.13 128.296 148.127 128.261 148.117 128.227C148.107 128.193 148.091 128.162 148.069 128.134C148.047 128.107 148.019 128.085 147.988 128.068C147.957 128.052 147.923 128.041 147.888 128.038L138.984 127.161C138.95 127.157 138.915 127.16 138.882 127.17C138.848 127.181 138.817 127.197 138.791 127.219C138.764 127.241 138.742 127.268 138.725 127.299C138.709 127.33 138.699 127.363 138.696 127.398C138.69 127.468 138.712 127.537 138.756 127.591C138.8 127.644 138.864 127.679 138.933 127.686L147.838 128.568H147.863C147.931 128.573 147.999 128.551 148.051 128.506C148.103 128.462 148.136 128.399 148.143 128.331H148.126ZM136.953 132.927C137.012 132.888 137.053 132.827 137.068 132.758C137.082 132.689 137.068 132.617 137.03 132.558L132.628 125.906C132.588 125.848 132.527 125.809 132.459 125.795C132.39 125.782 132.319 125.796 132.26 125.833C132.201 125.872 132.16 125.933 132.145 126.002C132.131 126.071 132.145 126.143 132.183 126.202L136.584 132.855C136.61 132.891 136.643 132.921 136.682 132.942C136.721 132.962 136.765 132.973 136.809 132.974C136.867 132.977 136.923 132.96 136.97 132.927H136.953ZM147.053 135.153C147.052 135.083 147.024 135.017 146.975 134.967C146.926 134.917 146.86 134.888 146.79 134.886L136.322 134.788C136.252 134.788 136.185 134.816 136.136 134.865C136.086 134.915 136.059 134.982 136.059 135.051C136.058 135.086 136.064 135.121 136.076 135.154C136.089 135.187 136.108 135.216 136.133 135.241C136.157 135.266 136.187 135.286 136.219 135.299C136.252 135.312 136.287 135.319 136.322 135.318L146.79 135.416C146.826 135.418 146.862 135.412 146.895 135.4C146.929 135.387 146.96 135.368 146.986 135.344C147.012 135.319 147.033 135.29 147.047 135.257C147.062 135.224 147.07 135.189 147.07 135.153H147.053ZM133.006 150.807C133.027 150.761 134.812 145.842 140.18 144.668C140.249 144.652 140.309 144.61 140.348 144.551C140.386 144.491 140.399 144.419 140.384 144.35C140.366 144.282 140.324 144.223 140.265 144.186C140.205 144.149 140.134 144.136 140.066 144.15C134.405 145.389 132.527 150.583 132.506 150.633C132.484 150.7 132.489 150.773 132.52 150.836C132.55 150.9 132.605 150.949 132.671 150.973H132.756C132.812 150.978 132.869 150.964 132.917 150.934C132.965 150.904 133.002 150.86 133.023 150.807H133.006Z" fill="black"/>
<path d="M141.121 147.22H129.118V149.705H130.165L132.332 163.26H137.907L140.074 149.705H141.121V147.22Z" fill="#FFC100"/>
<path opacity="0.3" d="M141.121 147.22H129.118V149.705H130.165L132.332 163.26H137.907L140.074 149.705H141.121V147.22Z" fill="white"/>
<path d="M33.0511 72.0866L19.0886 67.5286L17.8463 64.2468L15.0097 64.1578L9.86227 63.1825L10.4813 64.2468L16.9601 68.949L18.5586 69.7461L33.1613 77.374L33.0511 72.0866Z" fill="white" stroke="#263238" stroke-width="1.00396" stroke-miterlimit="10"/>
<path d="M17.8463 64.2468L16.5149 63.4497L13.8564 64.4249L14.2973 64.9549L17.8463 64.2468Z" fill="white" stroke="#263238" stroke-width="1.00396" stroke-linejoin="round"/>
<path d="M33.0511 72.0866L19.0886 67.5286L17.8463 64.2468L15.0097 64.1578L9.86227 63.1825L10.4813 64.2468L16.9601 68.949L18.5586 69.7461L33.1613 77.374L33.0511 72.0866Z" fill="white"/>
<mask id="mask0_9_115" style="mask-type:luminance" maskUnits="userSpaceOnUse" x="9" y="63" width="25" height="15">
<path d="M33.0511 72.0866L19.0886 67.5286L17.8463 64.2468L15.0097 64.1578L9.86227 63.1825L10.4813 64.2468L16.9601 68.949L18.5586 69.7461L33.1613 77.374L33.0511 72.0866Z" fill="white"/>
</mask>
<g mask="url(#mask0_9_115)">
<path opacity="0.5" d="M33.0511 72.0866L19.0886 67.5286L17.8463 64.2468L15.0097 64.1578L9.86227 63.1825L10.4813 64.2468L16.9601 68.949L18.5586 69.7461L33.1613 77.374L33.0511 72.0866Z" fill="#FFC100" stroke="#263238" stroke-width="1.00396" stroke-miterlimit="10"/>
</g>
<path d="M33.0511 72.0866L19.0886 67.5286L17.8463 64.2468L15.0097 64.1578L9.86227 63.1825L10.4813 64.2468L16.9601 68.949L18.5586 69.7461L33.1613 77.374L33.0511 72.0866Z" stroke="#263238" stroke-width="1.00396" stroke-miterlimit="10"/>
<path d="M17.8463 64.2468L16.5149 63.4497L13.8564 64.4249L14.2973 64.9549L17.8463 64.2468Z" fill="white"/>
<mask id="mask1_9_115" style="mask-type:luminance" maskUnits="userSpaceOnUse" x="13" y="63" width="5" height="2">
<path d="M17.8463 64.2468L16.5149 63.4497L13.8564 64.4249L14.2973 64.9549L17.8463 64.2468Z" fill="white"/>
</mask>
<g mask="url(#mask1_9_115)">
<path opacity="0.5" d="M17.8463 64.2468L16.5149 63.4497L13.8564 64.4249L14.2973 64.9549L17.8463 64.2468Z" fill="#FFC100" stroke="#263238" stroke-width="1.00396" stroke-linejoin="round"/>
</g>
<path d="M17.8463 64.2468L16.5149 63.4497L13.8564 64.4249L14.2973 64.9549L17.8463 64.2468Z" stroke="#263238" stroke-width="1.00396" stroke-linejoin="round"/>
<path d="M36.0149 42.5039C36.0149 42.5039 35.7986 44.4119 36.3371 45.6372C36.8756 46.8626 39.8648 51.0136 39.8648 51.0136L34.2849 55.4869C34.2849 55.4869 31.9698 50.8228 31.5289 50.0681C31.0879 49.3134 30.5579 46.0655 31.9953 43.7377C33.4327 41.4099 35.5018 40.7824 36.0149 42.5039Z" fill="white"/>
<mask id="mask2_9_115" style="mask-type:luminance" maskUnits="userSpaceOnUse" x="31" y="41" width="9" height="15">
<path d="M36.0149 42.5039C36.0149 42.5039 35.7986 44.4119 36.3371 45.6372C36.8756 46.8626 39.8648 51.0136 39.8648 51.0136L34.2849 55.4869C34.2849 55.4869 31.9698 50.8228 31.5289 50.0681C31.0879 49.3134 30.5579 46.0655 31.9953 43.7377C33.4327 41.4099 35.5018 40.7824 36.0149 42.5039Z" fill="white"/>
</mask>
<g mask="url(#mask2_9_115)">
<g style="mix-blend-mode:multiply" opacity="0.5">
<path d="M33.1486 48.635L35.5696 53.6552L34.2807 55.4911L31.8469 51.1451L33.1486 48.635Z" fill="#FFC100"/>
</g>
</g>
<path d="M36.0149 42.5039C36.0149 42.5039 35.7986 44.4119 36.3371 45.6372C36.8756 46.8626 39.8648 51.0136 39.8648 51.0136L34.2849 55.4869C34.2849 55.4869 31.9698 50.8228 31.5289 50.0681C31.0879 49.3134 30.5579 46.0655 31.9953 43.7377C33.4327 41.4099 35.5018 40.7824 36.0149 42.5039Z" stroke="#263238" stroke-width="1.00396" stroke-miterlimit="10"/>
<path d="M37.7448 39.0101C37.4013 36.89 34.9718 32.5779 31.1176 32.7433C28.616 32.8535 27.4457 33.3581 26.3603 33.9729C25.4755 34.4942 24.6508 35.1113 23.9011 35.8131C22.0185 38.073 21.357 38.6921 21.7217 40.422C21.6918 41.112 21.7999 41.8011 22.0397 42.4487C22.6163 43.9879 23.0106 44.9928 23.511 45.7263C23.3583 46.4429 22.9598 48.3339 22.9386 48.7664C22.9174 49.1989 24.2106 48.8978 24.8635 48.7325C26.0762 51.4461 28.298 53.3287 28.9891 53.5449C30.1933 53.9223 32.0971 51.9422 33.1062 50.4073C34.1153 48.8724 33.3521 47.1467 33.3563 46.4598C33.3606 45.7729 35.6248 44.2635 36.4643 43.7844C37.3038 43.3052 38.084 41.1259 37.7448 39.0101Z" fill="white"/>
<mask id="mask3_9_115" style="mask-type:luminance" maskUnits="userSpaceOnUse" x="21" y="32" width="17" height="22">
<path d="M37.7448 39.0101C37.4013 36.89 34.9718 32.5779 31.1176 32.7433C28.616 32.8535 27.4457 33.3581 26.3603 33.9729C25.4755 34.4942 24.6508 35.1113 23.9011 35.8131C22.0185 38.073 21.357 38.6921 21.7217 40.422C21.6918 41.112 21.7999 41.8011 22.0397 42.4487C22.6163 43.9879 23.0106 44.9928 23.511 45.7263C23.3583 46.4429 22.9598 48.3339 22.9386 48.7664C22.9174 49.1989 24.2106 48.8978 24.8635 48.7325C26.0762 51.4461 28.298 53.3287 28.9891 53.5449C30.1933 53.9223 32.0971 51.9422 33.1062 50.4073C34.1153 48.8724 33.3521 47.1467 33.3563 46.4598C33.3606 45.7729 35.6248 44.2635 36.4643 43.7844C37.3038 43.3052 38.084 41.1259 37.7448 39.0101Z" fill="white"/>
</mask>
<g mask="url(#mask3_9_115)">
<g style="mix-blend-mode:multiply" opacity="0.5">
<path d="M21.7386 40.422C21.7087 41.112 21.8168 41.801 22.0566 42.4487C22.6333 43.9879 23.0276 44.9928 23.5279 45.7263C23.3753 46.4429 22.9767 48.3339 22.9555 48.7664C22.9343 49.1989 24.2275 48.8978 24.8805 48.7325C26.0932 51.4461 28.3149 53.3287 29.0061 53.5449C30.2102 53.9223 32.114 51.9422 33.1231 50.4073C33.3753 50.0241 33.5389 49.5896 33.6023 49.1353C33.5472 48.936 33.509 48.813 33.509 48.813C33.509 48.813 32.9408 50.9967 31.813 50.7126C30.6851 50.4285 28.9594 48.1686 27.9969 47.3884C27.0344 46.6082 27.4288 45.5821 27.238 44.4204C27.0472 43.2586 24.1979 42.2367 24.0071 41.5711C23.8163 40.9054 24.4819 38.1493 24.4819 38.1493C24.4819 38.1493 25.5631 36.7077 25.3299 37.3013C25.1651 37.816 25.1053 38.3586 25.1541 38.8968C25.2029 39.4351 25.3593 39.958 25.614 40.4347C25.7928 40.8108 26.0763 41.1273 26.4306 41.3462C26.7848 41.5651 27.1947 41.677 27.6111 41.6686L28.6457 36.5424L26.462 34.7361L23.918 35.7961C22.0185 38.073 21.3697 38.6921 21.7386 40.422Z" fill="#FFC100"/>
</g>
</g>
<path d="M37.7448 39.0101C37.4013 36.8901 34.9718 32.5779 31.1176 32.7433C28.616 32.8535 27.4457 33.3581 26.3603 33.9729C25.4755 34.4942 24.6508 35.1113 23.9011 35.8131C22.0185 38.073 21.357 38.6921 21.7217 40.422C21.6918 41.112 21.7999 41.8011 22.0397 42.4487C22.6163 43.9879 23.0106 44.9928 23.511 45.7263C23.3583 46.4429 22.9598 48.3339 22.9386 48.7664C22.9174 49.1989 24.2106 48.8978 24.8635 48.7325C26.0762 51.4461 28.298 53.3287 28.9891 53.5449C30.1933 53.9223 32.0971 51.9422 33.1062 50.4073C34.1153 48.8724 33.3521 47.1467 33.3563 46.4598C33.3606 45.7729 35.6248 44.2635 36.4643 43.7844C37.3038 43.3052 38.084 41.1259 37.7448 39.0101Z" stroke="#263238" stroke-miterlimit="10"/>
<path d="M24.0367 44.4458L24.4607 45.6584C24.4607 45.6584 25.3723 45.9595 26.4832 44.7468" stroke="#263238" stroke-miterlimit="10" stroke-linecap="round"/>
<path d="M27.1701 50.1105C27.1701 50.1105 28.1793 50.0087 28.5863 48.5926" stroke="#263238" stroke-miterlimit="10" stroke-linecap="round"/>
<path d="M23.3286 43.4324C23.3286 43.4324 23.6297 42.5208 25.4487 42.5208" stroke="#263238" stroke-miterlimit="10" stroke-linecap="round"/>
<path d="M32.6525 31.0557C31.3308 30.8657 29.9979 30.7637 28.6626 30.7505C28.6626 30.7505 24.6685 28.4481 20.8313 30.9031C16.994 33.3581 18.8384 37.6575 18.8384 38.7302C18.8384 39.803 17.6088 39.8072 18.3763 41.1894C19.1437 42.5717 21.7386 41.8085 21.7386 41.8085C21.7661 41.2871 21.9038 40.7776 22.1428 40.3134C22.3818 39.8493 22.7167 39.4412 23.1251 39.1161C24.5074 38.0433 25.6098 37.8101 26.0677 38.1197C26.0677 38.1197 25.7624 40.422 26.2204 41.3421C26.2204 41.3421 27.7553 42.1095 28.2174 42.1095C28.6796 42.1095 27.9164 42.7583 29.447 43.3349C29.7259 43.4351 30.0242 43.4692 30.3185 43.4346C30.6127 43.4 30.895 43.2977 31.143 43.1356C31.3678 42.2028 31.8596 40.7994 32.7755 41.1258C34.1196 41.605 35.3449 44.9122 33.526 46.0401C35.7138 46.4386 38.3638 42.5675 38.5207 39.0397C38.6776 35.512 34.9252 31.4543 32.6525 31.0557Z" fill="#263238"/>
<path d="M26.1356 36.606C26.1356 36.606 27.2634 35.9996 28.6457 37.2971C30.0279 38.5945 32.7161 40.3287 36.2777 39.3747" stroke="white" stroke-width="0.5" stroke-linecap="round" stroke-linejoin="round"/>
<path d="M25.9787 35.5672C25.9787 35.5672 26.7546 34.3545 28.0521 34.3545C29.3495 34.3545 32.3811 36.1735 34.8022 36.1735" stroke="white" stroke-width="0.5" stroke-linecap="round" stroke-linejoin="round"/>
<path d="M25.0967 37.9034C25.0967 37.9034 23.6255 36.0887 22.2432 37.56C20.8609 39.0313 21.7386 40.422 21.7386 40.422" stroke="white" stroke-width="0.5" stroke-linecap="round" stroke-linejoin="round"/>
<path d="M19.2158 39.1161C20.0589 38.3557 20.5831 37.3044 20.6829 36.1735C20.8567 34.2697 23.4558 32.6246 25.0967 34.1849" stroke="white" stroke-width="0.5" stroke-linecap="round" stroke-linejoin="round"/>
<path d="M21.8955 32.1921C21.8955 32.1921 24.4947 29.682 26.6571 32.8832" stroke="white" stroke-width="0.5" stroke-linecap="round" stroke-linejoin="round"/>
<path d="M43.0491 155.607C43.0491 155.607 44.6476 158.092 44.4695 159.69L44.2957 161.289C44.2957 161.289 38.4317 162.896 37.1893 162.896C35.947 162.896 29.3707 162.272 29.3707 162.272L29.0866 161.144C29.0667 161.061 29.0761 160.974 29.1132 160.896C29.1502 160.819 29.2127 160.757 29.2901 160.72L35.1541 157.986L37.0028 155.963L43.0491 155.607Z" fill="white" stroke="#263238" stroke-width="1.00396" stroke-miterlimit="10"/>
<path d="M38.0798 161.645C39.6698 161.768 42.6887 160.797 44.4398 160.178L44.3169 161.289C44.3169 161.289 38.4317 162.896 37.1894 162.896C35.947 162.896 29.3707 162.272 29.3707 162.272L29.1672 161.467C30.2187 161.471 35.9767 161.484 38.0798 161.645Z" fill="#FFC100" stroke="#263238" stroke-width="1.00396" stroke-miterlimit="10"/>
<path d="M35.1626 157.986L26.6274 161.7C26.6274 161.7 25.8981 163.527 26.6274 163.892C27.3567 164.257 43.2568 163.892 43.2568 163.892C43.2568 163.892 44.355 161.005 42.6208 159.067C40.8867 157.129 35.1626 157.986 35.1626 157.986Z" fill="white" stroke="#263238" stroke-width="1.00396" stroke-miterlimit="10"/>
<path d="M43.2569 163.892C43.2569 163.892 27.3567 164.257 26.6274 163.892C26.2755 163.714 26.2628 163.201 26.3433 162.713H43.5367C43.4805 163.114 43.3868 163.509 43.2569 163.892Z" fill="#FFC100" stroke="#263238" stroke-width="1.00396" stroke-miterlimit="10"/>
<path d="M31.1261 93.448C31.1261 93.448 28.8958 103.332 28.0521 109.514C27.2083 115.695 26.7122 128.081 26.8903 129.501C27.0684 130.921 35.947 154.721 35.947 154.721L36.8332 156.841L43.0491 155.599C43.0491 155.599 40.2083 146.542 39.144 141.568C38.0798 136.595 35.752 128.424 35.752 127.004C35.752 125.583 41.264 98.4555 41.6583 96.6747C42.0527 94.8938 43.842 92.159 43.842 92.159L31.9402 91.9173L31.1261 93.448Z" fill="#FFC100" stroke="#263238" stroke-width="1.00396" stroke-miterlimit="10"/>
<path d="M31.1261 93.448C31.1261 93.448 29.8202 102.475 30.3586 108.75C30.8971 115.026 32.0547 128.386 32.0547 130.375C32.0547 132.363 35.2644 144.239 35.4467 147.971C35.7308 153.36 35.3322 156.027 35.3322 156.027L35.1414 157.981C35.1414 157.981 38.8854 158.516 39.7037 158.749C40.6489 158.992 41.6242 159.098 42.5996 159.063C42.5996 159.063 43.9607 153.071 43.9607 147.966C43.9607 142.861 42.8286 132.355 42.2647 128.098C41.7008 123.841 43.4773 107.419 44.4865 104.353C45.4956 101.288 47.7004 94.7963 46.2164 91.4806C44.7324 88.1649 31.1261 93.448 31.1261 93.448Z" fill="#FFC100" stroke="#263238" stroke-width="1.00396" stroke-miterlimit="10"/>
<path d="M47.8658 89.8185L47.7301 93.855C47.7301 93.855 45.3133 94.3341 42.0569 94.8981C39.3687 95.3645 32.6186 94.7751 30.3459 94.5546C30.1388 94.5363 29.9473 94.4369 29.8131 94.2781C29.6789 94.1192 29.6129 93.9139 29.6294 93.7066L29.8498 90.0602L47.8658 89.8185Z" fill="#263238"/>
<path d="M38.419 49.5805C38.419 49.5805 34.6029 53.7061 33.1655 56.2713C31.7282 58.8365 31.16 62.767 30.6215 65.8623C30.083 68.9575 31.5416 76.2249 31.1303 79.5618L29.8286 90.0729C29.8286 90.0729 29.5488 90.7852 30.4858 91.5654C31.4229 92.3456 35.9979 92.6296 40.1319 92.8374C41.6414 92.9137 46.1486 91.9428 46.8863 91.8961C47.7767 91.841 47.8064 90.7089 47.8446 89.8185C48.0227 85.6336 48.7774 74.478 49.2735 69.6189C50.2953 59.71 44.7027 50.1444 38.419 49.5805Z" fill="white" stroke="#263238" stroke-width="1.00396" stroke-miterlimit="10"/>
<g style="mix-blend-mode:multiply">
<path d="M48.8071 75.2539C48.9767 73.0534 49.1463 71.0563 49.2947 69.6189C49.3371 69.1949 49.3625 68.7709 49.3837 68.3469L39.2458 70.0429L30.5367 67.0749C30.5377 68.877 30.6396 70.6776 30.842 72.4682L39.3857 74.8596L48.8071 75.2539Z" fill="#FFC100"/>
</g>
<g style="mix-blend-mode:multiply">
<path d="M38.0416 49.996C37.4649 50.6363 36.3201 51.938 35.2304 53.3202L41.6668 59.8626L43.7869 59.0146L38.0416 49.996Z" fill="#FFC100"/>
</g>
<path d="M38.419 49.5805C38.419 49.5805 34.6029 53.7061 33.1655 56.2713C32.7393 57.0509 32.3941 57.8721 32.1352 58.722L39.8097 49.8561C39.3563 49.7187 38.8905 49.6264 38.419 49.5805Z" fill="#263238"/>
<g style="mix-blend-mode:multiply">
<path d="M30.9183 64.1917L39.2458 66.9307L49.3583 65.769C49.1998 63.2498 48.6401 60.7721 47.7004 58.4294L39.5468 61.6985L32.2582 58.3955C31.6622 60.29 31.2142 62.2279 30.9183 64.1917Z" fill="#FFC100"/>
</g>
<g style="mix-blend-mode:multiply">
<path d="M45.2539 85.6336C41.0303 86.3427 36.6965 85.9886 32.644 84.6032L30.613 83.9079L29.9813 88.9959L32.2963 89.6447C36.6974 90.8751 41.2972 91.2295 45.8348 90.6877L47.7047 90.463C47.802 90.257 47.8568 90.0334 47.8658 89.8058C47.9166 88.6737 48.0057 87.0285 48.1202 85.1417L45.2539 85.6336Z" fill="#FFC100"/>
</g>
<g style="mix-blend-mode:multiply">
<path d="M46.386 78.7053C42.1622 79.4173 37.8274 79.0616 33.7761 77.6708L31.1897 76.7846C31.2538 77.7084 31.2411 78.6359 31.1515 79.5576L30.8505 82.0041L33.4284 82.7249C37.8278 83.9567 42.4262 84.3125 46.9627 83.7722L48.2347 83.6196C48.3407 81.9235 48.4636 80.1173 48.5951 78.3322L46.386 78.7053Z" fill="#FFC100"/>
</g>
<path d="M6.60644 60.7751L14.8047 67.3666L15.1581 66.9271L6.9598 60.3356L6.60644 60.7751Z" fill="#263238"/>
<path d="M42.3664 54.1555C42.3664 54.1555 45.3726 56.2034 45.4405 61.0413C45.4701 63.1614 45.2497 65.1415 44.7621 68.6141C44.2745 72.0866 41.2471 83.3948 38.8896 84.7686C36.5321 86.1424 32.873 83.5475 32.873 83.5475L15.175 71.7983L10.8968 68.3427L8.77682 64.3401L9.4425 63.0681L14.662 67.0707L11.8508 64.4715L12.4021 63.7719L13.4197 64.48L16.3877 65.5909L17.0364 69.8309L17.9523 70.4585L34.8828 76.6447C34.8828 76.6447 34.6708 67.5328 34.8276 65.7902C34.9845 64.0475 35.2008 59.6676 37.0664 56.4918" fill="white"/>
<mask id="mask4_9_115" style="mask-type:luminance" maskUnits="userSpaceOnUse" x="8" y="54" width="38" height="32">
<path d="M42.3664 54.1555C42.3664 54.1555 45.3726 56.2034 45.4405 61.0413C45.4701 63.1614 45.2497 65.1415 44.7621 68.6141C44.2745 72.0866 41.2471 83.3948 38.8896 84.7686C36.5321 86.1424 32.873 83.5475 32.873 83.5475L15.175 71.7983L10.8968 68.3427L8.77682 64.3401L9.4425 63.0681L14.662 67.0707L11.8508 64.4715L12.4021 63.7719L13.4197 64.48L16.3877 65.5909L17.0364 69.8309L17.9523 70.4585L34.8828 76.6447C34.8828 76.6447 34.6708 67.5328 34.8276 65.7902C34.9845 64.0475 35.2008 59.6676 37.0664 56.4918" fill="white"/>
</mask>
<g mask="url(#mask4_9_115)">
<g style="mix-blend-mode:multiply" opacity="0.5">
<path d="M34.764 69.7589C34.764 72.905 34.87 76.6447 34.87 76.6447L17.9565 70.4839L17.0407 69.8564L16.3919 65.6164L13.4239 64.5055L12.4105 63.7847L11.8593 64.4843L14.662 67.0707L9.4425 63.0681L8.81074 64.3189L10.9308 68.3215L15.209 71.7983L16.2859 72.5149L39.6698 80.0495L34.764 69.7589Z" fill="#FFC100"/>
</g>
</g>
<path d="M42.3664 54.1555C42.3664 54.1555 45.3726 56.2034 45.4405 61.0413C45.4701 63.1614 45.2497 65.1415 44.7621 68.6141C44.2745 72.0866 41.2471 83.3948 38.8896 84.7686C36.5321 86.1424 32.873 83.5475 32.873 83.5475L15.175 71.7983L10.8968 68.3427L8.77682 64.3401L9.4425 63.0681L14.662 67.0707L11.8508 64.4715L12.4021 63.7719L13.4197 64.48L16.3877 65.5909L17.0364 69.8309L17.9523 70.4585L34.8828 76.6447C34.8828 76.6447 34.6708 67.5328 34.8276 65.7902C34.9845 64.0475 35.2008 59.6676 37.0664 56.4918" stroke="#263238" stroke-width="1.00396" stroke-miterlimit="10"/>
<path d="M34.8828 76.6447L41.3446 81.3087L43.0194 78.3407C43.0194 78.3407 44.1769 77.4291 44.3465 76.7422C44.5161 76.0553 44.2999 74.9402 44.4737 74.2533C44.6476 73.5664 45.5126 72.9219 45.5931 71.2598C45.6737 69.5977 45.5931 68.2112 45.5931 68.2112C45.5931 68.2112 46.9923 62.4575 46.8397 59.9559C46.687 57.4542 44.2745 53.0319 42.341 52.9344C40.4075 52.8368 37.8932 53.1294 35.9428 56.0805C33.9924 59.0315 34.3909 67.6473 34.0856 68.1858C33.7804 68.7243 34.2044 71.3828 34.2044 71.3828C34.0349 71.5092 33.8943 71.6702 33.792 71.8552C33.6896 72.0402 33.6278 72.2448 33.6108 72.4555C33.5768 73.1466 34.3231 74.8469 34.3231 74.8469L34.8828 76.6447Z" fill="white" stroke="#263238" stroke-width="1.00396" stroke-miterlimit="10"/>
<g style="mix-blend-mode:multiply">
<path d="M34.2552 65.9725C34.2685 66.7124 34.2132 67.4519 34.0899 68.1815C33.8185 68.6649 34.128 70.8485 34.1959 71.2937C37.8304 72.4226 41.6735 72.7125 45.4362 72.1417C45.5171 71.8469 45.5654 71.544 45.5804 71.2386C45.6652 69.5807 45.5804 68.19 45.5804 68.19C45.5804 68.19 45.7034 67.677 45.873 66.8968C41.9761 67.1445 38.0639 66.8332 34.2552 65.9725Z" fill="#FFC100"/>
</g>
<g style="mix-blend-mode:multiply">
<path d="M35.6799 56.5511C35.0736 57.768 34.7344 59.5955 34.5393 61.4484C38.3885 62.9174 42.5385 63.4225 46.6277 62.9197C46.7908 61.9391 46.8632 60.9455 46.8439 59.9516C46.7705 59.166 46.5849 58.395 46.2927 57.662C42.7222 57.7453 39.1557 57.372 35.6799 56.5511Z" fill="#FFC100"/>
</g>
<path d="M34.3231 74.8935L34.87 76.6447L41.3319 81.3087L43.0067 78.3407C43.0067 78.3407 44.1642 77.4291 44.3338 76.7422C44.3641 76.6227 44.3825 76.5006 44.3889 76.3776C40.9837 76.3188 37.6004 75.8199 34.3231 74.8935Z" fill="#263238"/>
<path d="M38.9998 158.694C38.9998 158.694 39.144 155.022 39.8479 149.654C40.5517 144.286 38.8599 136.662 38.5758 135.39C38.2918 134.118 38.72 131.295 38.4359 130.302C38.1518 129.31 36.7781 125.079 37.5879 120.169C38.3978 115.259 39.055 102.28 39.055 102.28C39.055 102.28 37.0155 100.622 36.4177 98.4639C35.8198 96.3058 36.2777 95.6274 36.2777 95.6274" stroke="#263238" stroke-width="1.00396" stroke-miterlimit="10"/>
<path d="M39.9454 95.8266L39.161 100.168" stroke="#263238" stroke-width="1.00396" stroke-miterlimit="10"/>
</svg>
